<?xml version="1.0" encoding="utf-8"?>
<!-- Generator: Adobe Illustrator 25.0.0, SVG Export Plug-In . SVG Version: 6.00 Build 0)  -->
<svg version="1.1" id="Layer_1" xmlns="http://www.w3.org/2000/svg" xmlns:xlink="http://www.w3.org/1999/xlink" x="0px" y="0px"
	 viewBox="0 0 595.28 841.89" style="enable-background:new 0 0 595.28 841.89;" xml:space="preserve">
<style type="text/css">
	.st0{fill:#E9BBBD;stroke:#000000;stroke-miterlimit:10;}
	.st1{fill:#FFFFFF;stroke:#000000;stroke-miterlimit:10;}
	.st2{fill:#E8E5D1;stroke:#000000;stroke-miterlimit:10;}
	.st3{fill:#9BA9B2;stroke:#000000;stroke-miterlimit:10;}
	.st4{fill:#DDBF9A;stroke:#000000;stroke-miterlimit:10;}
</style>
<path class="st0" d="M117.03,472.54c0-32.37,42-58.61,93.8-58.61c13.17,0,25.7,1.69,37.07,4.76c0.66,0.16,1.28,0.34,1.92,0.53
	c1.65,0.46,3.29,0.98,4.9,1.5c0.49,0.16,1,0.34,1.49,0.51c28.89,9.98,48.44,29.21,48.44,51.3c0,1.77-0.13,3.53-0.39,5.28
	c-0.76-22.24-21.38-41.42-51.21-50.94c-18,32.29-30.68,53.09-32.15,52.2c-1.45-0.88,8.18-22.37,24.06-54.49
	c-10.67-2.62-22.3-4.08-34.48-4.08c-48.97,0-89.17,23.44-93.43,53.32C117.05,473.4,117.03,472.97,117.03,472.54z"/>
<path class="st1" d="M303.61,481.28c0.28-1.15,0.51-2.3,0.66-3.47c0.01,0.43,0.03,0.86,0.03,1.29c0,0.72-0.01,1.45-0.07,2.17H303.61
	z"/>
<path class="st2" d="M220.9,479.08c1.47,0.9,14.15-19.9,32.15-52.2c1.03-1.84,2.09-3.73,3.16-5.64c9.88-17.86,21.19-38.8,33.03-61.3
	c35.38-67.23,62.17-122.88,59.83-124.3c-2.35-1.42-32.96,51.93-68.34,119.14c-12.26,23.28-23.5,45.18-32.84,63.92
	c-1,2-1.98,3.96-2.94,5.9C229.08,456.71,219.46,478.2,220.9,479.08z M246.68,425.04c0.13-0.24,0.25-0.5,0.39-0.74
	c0.92-1.76,1.86-3.47,2.76-5.08c5.23-9.3,9.82-15.81,10.86-15.17c1.01,0.61-1.55,7.61-5.96,16.68c-0.89,1.85-1.88,3.79-2.91,5.77
	c-0.09,0.18-0.19,0.35-0.28,0.53c-6.29,11.94-12.38,21.02-13.62,20.27C236.71,446.56,240.62,436.66,246.68,425.04z"/>
<path class="st0" d="M303.43,480.49c0.2-1.76,0.54-3.49,1-5.19c-1.79,22.17,16.48,43.92,45,57.28l7.77,3.34
	c10.3,3.99,21.67,6.98,33.75,8.56c48.6,6.44,91.18-11.54,98.81-40.64c-0.04,0.43-0.06,0.86-0.12,1.3
	c-3.69,32.12-48.37,52.65-99.78,45.84c-13.07-1.72-25.31-5.04-36.25-9.59c-0.63-0.25-1.23-0.51-1.84-0.78
	c-1.59-0.68-3.16-1.4-4.69-2.15c-0.48-0.22-0.96-0.45-1.42-0.7C318.12,524.06,300.92,502.41,303.43,480.49z"/>
<ellipse class="st3" cx="341.74" cy="415.63" rx="45.45" ry="48.77"/>
<ellipse class="st3" cx="341.74" cy="415.63" rx="38.35" ry="41.15"/>
<ellipse class="st0" cx="334.65" cy="345.31" rx="45.15" ry="48.45"/>
<ellipse class="st0" cx="334.65" cy="345.31" rx="38.35" ry="41.15"/>
<ellipse class="st4" cx="270.76" cy="352.66" rx="45.21" ry="48.51"/>
<ellipse class="st4" cx="269.8" cy="352.79" rx="38.35" ry="41.15"/>
<ellipse class="st1" cx="355.93" cy="423.81" rx="7.1" ry="7.61"/>
<ellipse class="st1" cx="337.25" cy="431.43" rx="7.1" ry="7.61"/>
<ellipse class="st1" cx="348.84" cy="401.17" rx="7.1" ry="7.61"/>
<ellipse class="st1" cx="330.16" cy="408.79" rx="7.1" ry="7.61"/>
<ellipse class="st1" cx="348.84" cy="352.92" rx="7.1" ry="7.61"/>
<ellipse class="st1" cx="341.74" cy="330.08" rx="7.1" ry="7.61"/>
<ellipse class="st1" cx="330.16" cy="359.89" rx="7.1" ry="7.61"/>
<ellipse class="st1" cx="323.06" cy="337.69" rx="7.1" ry="7.61"/>
<ellipse class="st1" cx="283.84" cy="359.25" rx="7.1" ry="7.61"/>
<ellipse class="st1" cx="276.89" cy="337.69" rx="7.1" ry="7.61"/>
<ellipse class="st1" cx="264.29" cy="366.87" rx="7.1" ry="7.61"/>
<ellipse class="st1" cx="257.2" cy="345.31" rx="7.1" ry="7.61"/>
</svg>
