<?xml version="1.0" encoding="utf-8"?>
<!-- Generator: Adobe Illustrator 25.0.0, SVG Export Plug-In . SVG Version: 6.00 Build 0)  -->
<svg version="1.1" id="Layer_1" xmlns="http://www.w3.org/2000/svg" xmlns:xlink="http://www.w3.org/1999/xlink" x="0px" y="0px"
	 viewBox="0 0 595.28 841.89" style="enable-background:new 0 0 595.28 841.89;" xml:space="preserve">
<style type="text/css">
	.st0{fill:#E9BBBD;stroke:#000000;stroke-miterlimit:10;}
	.st1{fill:#E8E5D1;stroke:#000000;stroke-miterlimit:10;}
	.st2{fill:#76909F;stroke:#000000;stroke-miterlimit:10;}
	.st3{fill:#DDBF9A;stroke:#000000;stroke-miterlimit:10;}
	.st4{stroke:#000000;stroke-miterlimit:10;}
</style>
<path class="st0" d="M512.64,563.64l-52.47,45.25c-13.24,11.42-35.68,12.04-49.87,1.39L63.05,349.58
	c-14.19-10.65-14.97-28.71-1.73-40.13l52.47-45.25c13.24-11.42,35.68-12.04,49.87-1.39l347.26,260.71
	C525.1,534.17,525.88,552.23,512.64,563.64z"/>
<line class="st1" x1="113.79" y1="264.2" x2="512.64" y2="563.64"/>
<line class="st1" x1="85.91" y1="288.25" x2="491.15" y2="582.18"/>
<line class="st1" x1="61.32" y1="309.46" x2="468.19" y2="601.98"/>
<line class="st1" x1="63.05" y1="349.58" x2="163.65" y2="262.81"/>
<line class="st1" x1="90.03" y1="369.84" x2="191.58" y2="283.78"/>
<line class="st1" x1="116.23" y1="389.51" x2="219.96" y2="305.08"/>
<line class="st1" x1="144.42" y1="410.68" x2="246.86" y2="325.28"/>
<line class="st1" x1="176.62" y1="434.85" x2="281.67" y2="351.41"/>
<line class="st1" x1="235.39" y1="476.48" x2="338.95" y2="394.41"/>
<line class="st1" x1="264.9" y1="500.61" x2="370.52" y2="417.6"/>
<line class="st1" x1="290.76" y1="521.65" x2="395.25" y2="437.79"/>
<line class="st1" x1="315.74" y1="539.3" x2="420.92" y2="455.96"/>
<line class="st1" x1="345.47" y1="561.62" x2="451.81" y2="479.15"/>
<line class="st1" x1="379.1" y1="586.86" x2="482.84" y2="502.44"/>
<line class="st1" x1="410.31" y1="610.29" x2="510.91" y2="523.52"/>
<line class="st1" x1="203.73" y1="455.2" x2="309.83" y2="372.55"/>
<line class="st1" x1="169.78" y1="268.15" x2="162.62" y2="274.36"/>
<line class="st1" x1="177.32" y1="273.07" x2="163.27" y2="284.62"/>
<line class="st1" x1="184.05" y1="278.12" x2="177.09" y2="284.73"/>
<line class="st1" x1="196.78" y1="287.68" x2="187.7" y2="295.66"/>
<line class="st1" x1="204.72" y1="293.64" x2="191.12" y2="305.68"/>
<line class="st1" x1="213.17" y1="299.98" x2="204.56" y2="306.95"/>
<line class="st1" x1="225.71" y1="309.4" x2="216.31" y2="316.59"/>
<line class="st1" x1="232.48" y1="314.49" x2="217.39" y2="326.31"/>
<line class="st1" x1="240.5" y1="320.5" x2="232.52" y2="327.77"/>
<line class="st1" x1="254.12" y1="330.73" x2="247.73" y2="336.23"/>
<line class="st1" x1="263.68" y1="337.91" x2="251.56" y2="347.9"/>
<line class="st1" x1="272.76" y1="344.73" x2="266.46" y2="350.43"/>
<line class="st1" x1="288.31" y1="357.02" x2="282.4" y2="362.54"/>
<line class="st1" x1="295.37" y1="362.23" x2="283.98" y2="371.87"/>
<line class="st1" x1="303.39" y1="367.72" x2="297.5" y2="373.06"/>
<line class="st1" x1="315.17" y1="376.56" x2="307.91" y2="382.44"/>
<line class="st1" x1="323.14" y1="382.55" x2="306.34" y2="394.86"/>
<line class="st1" x1="331.08" y1="388.51" x2="323.24" y2="394.96"/>
<line class="st1" x1="347.25" y1="400.65" x2="339.86" y2="406.94"/>
<line class="st1" x1="354.91" y1="406.4" x2="341.2" y2="418.15"/>
<line class="st1" x1="362.49" y1="412.09" x2="355.42" y2="418.39"/>
<line class="st1" x1="377.01" y1="422.99" x2="369.79" y2="429.49"/>
<line class="st1" x1="382.6" y1="427.18" x2="366.68" y2="440.31"/>
<line class="st1" x1="388.79" y1="431.83" x2="384" y2="435.81"/>
<line class="st1" x1="402.13" y1="441.85" x2="395.32" y2="447.05"/>
<line class="st1" x1="408.92" y1="446.95" x2="393.56" y2="457.9"/>
<line class="st1" x1="415.62" y1="451.98" x2="409.62" y2="456.71"/>
<line class="st1" x1="426.42" y1="460.08" x2="418.02" y2="466.37"/>
<line class="st1" x1="436.4" y1="467.58" x2="420.29" y2="480.36"/>
<line class="st1" x1="444.06" y1="473.33" x2="436.25" y2="479.75"/>
<line class="st1" x1="456.89" y1="484.53" x2="451.02" y2="489.17"/>
<line class="st1" x1="466.59" y1="490.25" x2="453.96" y2="500.28"/>
<line class="st1" x1="474.61" y1="496.26" x2="468.5" y2="500.98"/>
<line class="st1" x1="489.27" y1="507.28" x2="482.94" y2="512.94"/>
<line class="st1" x1="497.72" y1="513.61" x2="483.24" y2="525.53"/>
<line class="st1" x1="462.4" y1="598.67" x2="454.8" y2="605.2"/>
<ellipse transform="matrix(0.997 -0.0777 0.0777 0.997 -21.6438 32.9781)" class="st1" cx="412.86" cy="294.56" rx="110.31" ry="90.61"/>
<ellipse transform="matrix(0.999 -0.0437 0.0437 0.999 -12.4122 18.4011)" class="st2" cx="414.87" cy="293.23" rx="96.57" ry="81.38"/>
<ellipse transform="matrix(0.0358 -0.9994 0.9994 0.0358 96.4931 700.3248)" class="st0" cx="411.17" cy="300.16" rx="51.1" ry="58.4"/>
<ellipse transform="matrix(0.5568 -0.8306 0.8306 0.5568 -239.415 456.1321)" class="st3" cx="307.74" cy="452.43" rx="222.99" ry="34.22"/>
<polygon class="st4" points="412.14,315.21 399.04,315.08 392.73,304.97 399.53,294.99 412.63,295.13 418.94,305.24 "/>
<ellipse class="st1" cx="406.03" cy="304.83" rx="7.85" ry="6.78"/>
</svg>
