<?xml version="1.0" encoding="utf-8"?>
<!-- Generator: Adobe Illustrator 25.0.1, SVG Export Plug-In . SVG Version: 6.00 Build 0)  -->
<svg version="1.1" id="Layer_1" xmlns="http://www.w3.org/2000/svg" xmlns:xlink="http://www.w3.org/1999/xlink" x="0px" y="0px"
	 viewBox="0 0 595.28 841.89" style="enable-background:new 0 0 595.28 841.89;" xml:space="preserve">
<style type="text/css">
	.st0{fill:#E9BBBD;stroke:#000000;stroke-miterlimit:10;}
	.st1{fill:#E8E5D1;stroke:#000000;stroke-miterlimit:10;}
	.st2{fill:#DDBF9A;stroke:#000000;stroke-miterlimit:10;}
	.st3{fill:#76909F;stroke:#000000;stroke-miterlimit:10;}
	.st4{stroke:#000000;stroke-miterlimit:10;}
</style>
<path class="st0" d="M527.75,591.59l-56.6,56.59c-14.28,14.28-38.49,15.06-53.8,1.74L42.72,323.91
	c-15.31-13.32-16.15-35.9-1.87-50.18l56.6-56.59c14.28-14.28,38.49-15.06,53.8-1.74l374.63,326.01
	C541.19,554.74,542.03,577.32,527.75,591.59z"/>
<line class="st1" x1="97.46" y1="217.14" x2="527.75" y2="591.59"/>
<line class="st1" x1="67.38" y1="247.21" x2="504.57" y2="614.77"/>
<line class="st1" x1="40.85" y1="273.73" x2="479.79" y2="639.54"/>
<line class="st1" x1="42.72" y1="323.91" x2="151.25" y2="215.4"/>
<line class="st1" x1="71.83" y1="349.24" x2="181.38" y2="241.62"/>
<line class="st1" x1="100.09" y1="373.84" x2="211.99" y2="268.26"/>
<line class="st1" x1="130.51" y1="400.31" x2="241.02" y2="293.52"/>
<line class="st1" x1="165.24" y1="430.53" x2="278.57" y2="326.2"/>
<line class="st1" x1="228.64" y1="482.59" x2="340.36" y2="379.97"/>
<line class="st1" x1="260.48" y1="512.77" x2="374.42" y2="408.96"/>
<line class="st1" x1="288.38" y1="539.08" x2="401.11" y2="434.22"/>
<line class="st1" x1="315.33" y1="561.15" x2="428.8" y2="456.93"/>
<line class="st1" x1="347.4" y1="589.06" x2="462.13" y2="485.93"/>
<line class="st1" x1="383.68" y1="620.63" x2="495.59" y2="515.06"/>
<line class="st1" x1="417.35" y1="649.92" x2="525.88" y2="541.41"/>
<line class="st1" x1="194.49" y1="455.99" x2="308.95" y2="352.63"/>
<line class="st1" x1="157.86" y1="222.08" x2="150.14" y2="229.84"/>
<line class="st1" x1="166" y1="228.23" x2="150.84" y2="242.67"/>
<line class="st1" x1="173.25" y1="234.55" x2="165.75" y2="242.81"/>
<line class="st1" x1="186.99" y1="246.51" x2="177.2" y2="256.48"/>
<line class="st1" x1="195.56" y1="253.96" x2="180.88" y2="269.01"/>
<line class="st1" x1="204.67" y1="261.89" x2="195.39" y2="270.59"/>
<line class="st1" x1="218.2" y1="273.66" x2="208.06" y2="282.65"/>
<line class="st1" x1="225.51" y1="280.02" x2="209.22" y2="294.8"/>
<line class="st1" x1="234.15" y1="287.55" x2="225.54" y2="296.64"/>
<line class="st1" x1="248.85" y1="300.33" x2="241.96" y2="307.21"/>
<line class="st1" x1="259.16" y1="309.31" x2="246.09" y2="321.8"/>
<line class="st1" x1="268.96" y1="317.84" x2="262.17" y2="324.97"/>
<line class="st1" x1="285.73" y1="333.21" x2="279.36" y2="340.11"/>
<line class="st1" x1="293.35" y1="339.73" x2="281.06" y2="351.78"/>
<line class="st1" x1="302" y1="346.59" x2="295.65" y2="353.27"/>
<line class="st1" x1="314.71" y1="357.65" x2="306.88" y2="365"/>
<line class="st1" x1="323.31" y1="365.13" x2="305.19" y2="380.53"/>
<line class="st1" x1="331.88" y1="372.59" x2="323.42" y2="380.65"/>
<line class="st1" x1="349.32" y1="387.77" x2="341.35" y2="395.63"/>
<line class="st1" x1="357.58" y1="394.96" x2="342.79" y2="409.65"/>
<line class="st1" x1="365.76" y1="402.08" x2="358.14" y2="409.96"/>
<line class="st1" x1="381.43" y1="415.71" x2="373.63" y2="423.84"/>
<line class="st1" x1="387.45" y1="420.95" x2="370.28" y2="437.36"/>
<line class="st1" x1="394.14" y1="426.77" x2="388.97" y2="431.73"/>
<line class="st1" x1="408.52" y1="439.29" x2="401.18" y2="445.8"/>
<line class="st1" x1="415.86" y1="445.67" x2="399.28" y2="459.36"/>
<line class="st1" x1="423.08" y1="451.96" x2="416.61" y2="457.87"/>
<line class="st1" x1="434.73" y1="462.09" x2="425.67" y2="469.95"/>
<line class="st1" x1="445.5" y1="471.46" x2="428.11" y2="487.45"/>
<line class="st1" x1="453.76" y1="478.65" x2="445.33" y2="486.68"/>
<line class="st1" x1="467.61" y1="492.66" x2="461.27" y2="498.46"/>
<line class="st1" x1="478.07" y1="499.81" x2="464.44" y2="512.35"/>
<line class="st1" x1="486.72" y1="507.33" x2="480.13" y2="513.23"/>
<line class="st1" x1="502.54" y1="521.1" x2="495.71" y2="528.19"/>
<line class="st1" x1="511.65" y1="529.03" x2="496.03" y2="543.93"/>
<line class="st1" x1="473.55" y1="635.39" x2="465.34" y2="643.56"/>
<ellipse class="st1" cx="458.23" cy="285.13" rx="119.41" ry="112.93"/>
<ellipse class="st2" cx="460.78" cy="284.16" rx="104.38" ry="101.57"/>
<ellipse class="st3" cx="454.48" cy="291.31" rx="62.9" ry="64"/>
<ellipse transform="matrix(0.7259 -0.6877 0.6877 0.7259 -224.0202 321.8806)" class="st2" cx="291.88" cy="442.04" rx="267.61" ry="38.47"/>
<polygon class="st4" points="450.08,309.65 436.58,305.43 433.68,291.37 444.29,281.52 457.79,285.74 460.68,299.8 "/>
</svg>
