<?xml version="1.0" encoding="utf-8"?>
<!-- Generator: Adobe Illustrator 25.0.1, SVG Export Plug-In . SVG Version: 6.00 Build 0)  -->
<svg version="1.1" id="Layer_1" xmlns="http://www.w3.org/2000/svg" xmlns:xlink="http://www.w3.org/1999/xlink" x="0px" y="0px"
	 viewBox="0 0 595.28 841.89" style="enable-background:new 0 0 595.28 841.89;" xml:space="preserve">
<style type="text/css">
	.st0{fill:#DDBF9A;stroke:#000000;stroke-miterlimit:10;}
	.st1{fill:none;stroke:#000000;stroke-miterlimit:10;}
</style>
<path class="st0" d="M252.75,252.29c39.02,50.7,55.1,107.81,44.94,147.59c-0.27,1.06-0.54,2.08-0.84,3.09
	c-0.4,0.02-0.81,0.05-1.22,0.05c0.12-0.36,0.25-0.76,0.35-1.15c0.2-0.64,0.36-1.27,0.54-1.93
	C307.21,360.4,291.51,303.22,252.75,252.29z"/>
<path class="st0" d="M72.25,180.31c10.18-8.12,22.64-12.46,36.41-13.33c0.67-0.05,1.32-0.07,2-0.1c-0.1,0.38-0.21,0.76-0.3,1.17
	c41.08-2.21,93.95,25.89,135.38,75.47c1.05,1.23,2.09,2.52,3.11,3.8c1.33,1.66,2.62,3.33,3.89,4.97
	c38.76,50.94,54.45,108.12,43.77,147.65c-0.18,0.66-0.35,1.29-0.54,1.93c-0.1,0.38-0.23,0.78-0.35,1.15
	c-3.97,12.74-10.86,23.5-20.75,31.39c-41.58,33.16-120.66,3.16-176.61-67C42.32,297.24,30.67,213.47,72.25,180.31z"/>
<path class="st0" d="M110.67,166.88c41.21-1.63,93.92,26.84,135.08,76.63c-41.43-49.58-94.3-77.68-135.38-75.47
	C110.46,167.64,110.57,167.26,110.67,166.88z"/>
<path class="st0" d="M75,178.12l57.49-45.85c41.58-33.16,120.66-3.16,176.61,67s67.6,153.93,26.02,187.09l-57.49,45.85
	c10.18-8.12,17.19-19.3,21.1-32.53c12.12-40.86-4.88-101.58-47.12-154.56c-42.24-52.97-97.66-83.06-140.19-80.34
	C97.64,165.66,85.18,170,75,178.12z"/>
<path class="st0" d="M111.21,164.95c42.53-2.72,97.97,27.35,140.21,80.32c42.24,52.97,59.21,113.71,47.1,154.57
	c-0.28,0.02-0.53,0.03-0.83,0.03c-0.38,0.03-0.78,0.05-1.17,0.07c10.68-39.54-5.01-96.72-43.77-147.65
	c-1.27-1.65-2.56-3.31-3.89-4.97c-1.02-1.28-2.06-2.58-3.11-3.8c-41.43-49.58-94.3-77.68-135.38-75.47c0.09-0.4,0.19-0.78,0.3-1.17
	C110.85,166.22,111.02,165.58,111.21,164.95z"/>
<path class="st0" d="M553.39,625.8l-56.58,46.96c-40.92,33.96-121.17,5.99-179.22-62.46s-71.93-151.49-31.01-185.45l56.58-46.96
	c-10.02,8.32-16.77,19.6-20.36,32.85c-11.11,40.92,7.55,100.91,51.37,152.59c43.83,51.68,100.3,80.29,142.97,76.58
	C530.97,638.72,543.37,634.11,553.39,625.8z"/>
<path class="st0" d="M75.01,185.38c9.46-7.54,21.13-11.45,34.09-12.03c0.63-0.04,1.25-0.04,1.89-0.06c-0.09,0.36-0.18,0.72-0.26,1.1
	c38.69-1.38,89.03,26.28,128.97,74.16c1.01,1.18,2.01,2.44,3,3.67c1.28,1.61,2.53,3.21,3.76,4.8
	c37.44,49.12,53.26,103.77,43.89,141.18c-0.16,0.62-0.3,1.22-0.48,1.83c-0.09,0.36-0.2,0.74-0.31,1.08
	c-3.52,12.04-9.83,22.15-19.01,29.48c-38.61,30.79-113.7,0.86-167.69-66.84C48.86,296.04,36.4,216.17,75.01,185.38z"/>
<ellipse transform="matrix(0.7818 -0.6235 0.6235 0.7818 -155.1408 174.8544)" class="st0" cx="172.29" cy="309.12" rx="81.65" ry="149.63"/>
<ellipse transform="matrix(0.7818 -0.6235 0.6235 0.7818 -155.1408 174.8544)" class="st0" cx="172.29" cy="309.12" rx="74.06" ry="144.49"/>
<ellipse transform="matrix(0.7818 -0.6235 0.6235 0.7818 -156.159 173.7584)" class="st0" cx="170.22" cy="310.03" rx="70.3" ry="132.7"/>
<ellipse transform="matrix(0.7818 -0.6235 0.6235 0.7818 -157.1484 172.8286)" class="st0" cx="168.39" cy="310.98" rx="59.43" ry="123.04"/>
<ellipse transform="matrix(0.7818 -0.6235 0.6235 0.7818 -157.4927 173.3764)" class="st0" cx="169.01" cy="311.74" rx="51.44" ry="117.72"/>
<ellipse transform="matrix(0.7818 -0.6235 0.6235 0.7818 -157.1301 172.7995)" class="st0" cx="168.36" cy="310.94" rx="39.59" ry="107.74"/>
<ellipse transform="matrix(0.7818 -0.6235 0.6235 0.7818 -156.159 173.7584)" class="st0" cx="170.22" cy="310.03" rx="30.77" ry="98.7"/>
<ellipse transform="matrix(0.7818 -0.6235 0.6235 0.7818 -154.9729 173.0815)" class="st0" cx="169.84" cy="307.99" rx="22.07" ry="93.04"/>
<line class="st1" x1="457.38" y1="687.09" x2="511.46" y2="640.2"/>
<line class="st0" x1="417.35" y1="681.17" x2="470.65" y2="633.11"/>
<line class="st0" x1="375.5" y1="661.22" x2="429.37" y2="612.52"/>
<line class="st0" x1="335.8" y1="629.75" x2="390.3" y2="580.76"/>
<line class="st0" x1="303.4" y1="589.8" x2="358.4" y2="542.5"/>
<line class="st0" x1="274.88" y1="539.84" x2="332.51" y2="495.6"/>
<line class="st0" x1="263.15" y1="486.74" x2="319.81" y2="441.56"/>
<line class="st0" x1="302.5" y1="374.27" x2="360" y2="328.42"/>
<line class="st0" x1="293.09" y1="321.26" x2="351.2" y2="275.29"/>
<line class="st0" x1="266.25" y1="265.71" x2="324.02" y2="218"/>
<line class="st0" x1="233.45" y1="224.57" x2="288.6" y2="176.34"/>
<line class="st0" x1="191.28" y1="189.33" x2="243.91" y2="141.05"/>
<line class="st0" x1="142.29" y1="168.15" x2="193.3" y2="120.67"/>
<line class="st0" x1="202.59" y1="372.12" x2="223.93" y2="352.84"/>
<line class="st0" x1="178.47" y1="350.96" x2="208.64" y2="324.13"/>
<line class="st0" x1="146.45" y1="315.64" x2="179.4" y2="287.25"/>
<line class="st0" x1="125.99" y1="283.69" x2="154.53" y2="258.52"/>
<line class="st0" x1="218.08" y1="380.66" x2="222.15" y2="377.53"/>
<line class="st0" x1="212.16" y1="378.26" x2="221.44" y2="370.76"/>
<line class="st0" x1="207.16" y1="375.23" x2="213.06" y2="370.31"/>
<line class="st0" x1="198.14" y1="368.74" x2="205.72" y2="362.12"/>
<line class="st0" x1="190.46" y1="362.31" x2="203.19" y2="351.37"/>
<line class="st0" x1="184.84" y1="355.5" x2="191.38" y2="350.02"/>
<line class="st0" x1="172.05" y1="344.31" x2="180.22" y2="337.11"/>
<line class="st0" x1="163.22" y1="334.52" x2="178.78" y2="320.76"/>
<line class="st0" x1="154.75" y1="324.44" x2="162.99" y2="317.6"/>
<line class="st0" x1="142.23" y1="308.17" x2="150.2" y2="301.55"/>
<line class="st0" x1="137" y1="299.7" x2="151.47" y2="287.08"/>
<line class="st0" x1="131.64" y1="291.72" x2="138.26" y2="285.9"/>
<line class="st0" x1="120.16" y1="272.47" x2="124.68" y2="268.87"/>
<line class="st0" x1="115.79" y1="262.36" x2="129.46" y2="251.46"/>
<line class="st0" x1="111.86" y1="252.79" x2="116.2" y2="248.84"/>
<line class="st0" x1="124.68" y1="268.87" x2="129.25" y2="265.22"/>
<line class="st1" x1="477.84" y1="683.3" x2="502.56" y2="662.52"/>
<line class="st1" x1="467.33" y1="686.37" x2="486.51" y2="669.73"/>
<line class="st1" x1="438.8" y1="686.95" x2="467.96" y2="659.04"/>
<line class="st1" x1="449.44" y1="686.62" x2="462.31" y2="674.3"/>
<line class="st0" x1="428.69" y1="684.76" x2="442.36" y2="671.67"/>
<line class="st0" x1="397.93" y1="673.52" x2="427.93" y2="645.93"/>
<line class="st0" x1="408.68" y1="678.1" x2="421.49" y2="665.43"/>
<line class="st0" x1="387.52" y1="668.27" x2="403.78" y2="652.27"/>
<line class="st0" x1="355.31" y1="647.08" x2="387.42" y2="616.42"/>
<line class="st0" x1="365.23" y1="653.66" x2="378.35" y2="641.13"/>
<line class="st0" x1="343.65" y1="637.14" x2="358.94" y2="623.77"/>
<line class="st0" x1="319.59" y1="612.55" x2="350.14" y2="585.08"/>
<line class="st0" x1="326.84" y1="620.65" x2="340.85" y2="608.06"/>
<line class="st0" x1="310.22" y1="601.24" x2="324.45" y2="589.17"/>
<line class="st0" x1="287.28" y1="567.92" x2="322.18" y2="539.44"/>
<line class="st0" x1="294.47" y1="578.61" x2="312.79" y2="563.79"/>
<line class="st0" x1="280.28" y1="552.53" x2="295.36" y2="541.29"/>
<line class="st0" x1="266.7" y1="513.34" x2="297.24" y2="491.2"/>
<line class="st0" x1="270.45" y1="527.28" x2="287.04" y2="514.9"/>
<line class="st0" x1="265.12" y1="501.27" x2="279.55" y2="490.64"/>
<line class="st0" x1="264.91" y1="462" x2="294.54" y2="439.18"/>
<line class="st0" x1="263.17" y1="475.95" x2="279.52" y2="462.68"/>
<line class="st0" x1="269.34" y1="447.98" x2="280.88" y2="439.26"/>
<line class="st0" x1="299.95" y1="396.17" x2="330.64" y2="371.69"/>
<line class="st0" x1="292.79" y1="410.65" x2="312.18" y2="395.96"/>
<line class="st0" x1="301.94" y1="383.12" x2="317.88" y2="371.23"/>
<line class="st0" x1="301.13" y1="347.7" x2="331.21" y2="323.72"/>
<line class="st0" x1="302.17" y1="361.67" x2="320.62" y2="346.96"/>
<line class="st0" x1="296.91" y1="332.61" x2="311.63" y2="320.76"/>
<line class="st0" x1="282.71" y1="293.75" x2="316.17" y2="266.25"/>
<line class="st0" x1="288.5" y1="307.68" x2="307.06" y2="293.44"/>
<line class="st0" x1="274.43" y1="279.01" x2="290.11" y2="266.3"/>
<line class="st0" x1="251.6" y1="245.13" x2="281.26" y2="220.37"/>
<line class="st0" x1="258.62" y1="254.32" x2="273.62" y2="241.76"/>
<line class="st0" x1="242.62" y1="234.22" x2="255.95" y2="223.05"/>
<line class="st0" x1="214.06" y1="206.91" x2="241.04" y2="182.94"/>
<line class="st0" x1="223.84" y1="214.69" x2="236.45" y2="203.42"/>
<line class="st0" x1="201.84" y1="197.39" x2="216.5" y2="184.07"/>
<line class="st0" x1="169" y1="177.57" x2="197.28" y2="151.88"/>
<line class="st0" x1="180.98" y1="183.97" x2="196.42" y2="169.8"/>
<line class="st0" x1="155.46" y1="171.98" x2="170.37" y2="158.53"/>
<line class="st0" x1="115.36" y1="164.79" x2="144.77" y2="138.19"/>
<line class="st0" x1="129.6" y1="164.92" x2="143.34" y2="152.35"/>
<line class="st0" x1="100.39" y1="208.68" x2="117.22" y2="193.28"/>
</svg>
