<?xml version="1.0" encoding="utf-8"?>
<!-- Generator: Adobe Illustrator 25.0.1, SVG Export Plug-In . SVG Version: 6.00 Build 0)  -->
<svg version="1.1" id="Layer_1" xmlns="http://www.w3.org/2000/svg" xmlns:xlink="http://www.w3.org/1999/xlink" x="0px" y="0px"
	 viewBox="0 0 595.28 841.89" style="enable-background:new 0 0 595.28 841.89;" xml:space="preserve">
<style type="text/css">
	.st0{fill:#E9BBBD;stroke:#000000;stroke-miterlimit:10;}
	.st1{fill:#FFFFFF;stroke:#000000;stroke-miterlimit:10;}
	.st2{fill:#E8E5D1;stroke:#000000;stroke-miterlimit:10;}
	.st3{fill:#9BA9B2;stroke:#000000;stroke-miterlimit:10;}
	.st4{fill:#DDBF9A;stroke:#000000;stroke-miterlimit:10;}
</style>
<path class="st0" d="M159.87,79.55c55.98,0,101.34,76.83,101.34,171.59c0,24.09-2.93,47.01-8.24,67.81
	c-0.28,1.2-0.58,2.34-0.91,3.52c-0.8,3.03-1.69,6.02-2.6,8.97c-0.28,0.9-0.58,1.83-0.88,2.73c-17.25,52.85-50.5,88.6-88.7,88.6
	c-3.07,0-6.11-0.25-9.12-0.71c38.45-1.39,71.62-39.11,88.07-93.67c-55.84-32.92-91.8-56.12-90.25-58.81
	c1.52-2.64,38.67,14.96,94.2,44.01c4.53-19.51,7.05-40.8,7.05-63.07c0-89.58-40.52-163.11-92.19-170.91
	C158.38,79.57,159.13,79.55,159.87,79.55z"/>
<path class="st1" d="M144.75,420.85c1.99,0.52,3.98,0.93,6,1.2c-0.75,0.03-1.49,0.05-2.24,0.05c-1.24,0-2.52-0.03-3.76-0.14V420.85z
	"/>
<path class="st2" d="M148.57,269.56c-1.55,2.7,34.41,25.89,90.25,58.81c3.18,1.88,6.44,3.82,9.76,5.78
	c30.88,18.07,67.09,38.76,105.98,60.42C470.79,459.3,567.01,508.3,569.47,504.02c2.46-4.31-89.78-60.29-205.99-125.01
	c-40.25-22.43-78.12-42.98-110.51-60.07c-3.46-1.83-6.86-3.62-10.2-5.37C187.24,284.52,150.09,266.92,148.57,269.56z M242,316.71
	c0.41,0.25,0.86,0.46,1.27,0.71c3.04,1.69,6,3.41,8.79,5.04c16.09,9.57,27.34,17.96,26.23,19.87c-1.05,1.85-13.16-2.83-28.83-10.9
	c-3.21-1.64-6.55-3.43-9.98-5.31c-0.3-0.16-0.61-0.35-0.91-0.52c-20.65-11.5-36.35-22.65-35.05-24.91
	C204.79,298.48,221.9,305.62,242,316.71z"/>
<path class="st0" d="M146.13,420.51c3.05,0.37,6.04,0.99,8.98,1.83c-38.33-3.28-75.93,30.15-99.04,82.32l-5.77,14.21
	c-6.9,18.83-12.07,39.64-14.81,61.75c-11.13,88.9,19.95,166.79,70.27,180.74c-0.75-0.07-1.49-0.12-2.24-0.22
	c-55.54-6.75-91.04-88.48-79.25-182.52c2.97-23.91,8.72-46.3,16.58-66.32c0.43-1.15,0.88-2.25,1.34-3.37
	c1.18-2.9,2.42-5.78,3.71-8.58c0.38-0.88,0.78-1.75,1.21-2.6C70.79,447.38,108.22,415.92,146.13,420.51z"/>
<ellipse class="st3" cx="258.26" cy="490.61" rx="84.32" ry="83.14"/>
<ellipse class="st3" cx="258.26" cy="490.61" rx="71.15" ry="70.15"/>
<ellipse class="st0" cx="379.85" cy="477.62" rx="83.78" ry="82.6"/>
<ellipse class="st0" cx="379.85" cy="477.62" rx="71.15" ry="70.15"/>
<ellipse class="st4" cx="367.13" cy="360.75" rx="83.87" ry="82.69"/>
<ellipse class="st4" cx="366.92" cy="359" rx="71.15" ry="70.15"/>
<ellipse class="st1" cx="244.12" cy="516.56" rx="13.16" ry="12.98"/>
<ellipse class="st1" cx="230.95" cy="482.39" rx="13.16" ry="12.98"/>
<ellipse class="st1" cx="283.26" cy="503.59" rx="13.16" ry="12.98"/>
<ellipse class="st1" cx="270.1" cy="469.41" rx="13.16" ry="12.98"/>
<ellipse class="st1" cx="366.69" cy="503.59" rx="13.16" ry="12.98"/>
<ellipse class="st1" cx="406.18" cy="490.61" rx="13.16" ry="12.98"/>
<ellipse class="st1" cx="354.63" cy="469.41" rx="13.16" ry="12.98"/>
<ellipse class="st1" cx="393.02" cy="456.43" rx="13.16" ry="12.98"/>
<ellipse class="st1" cx="355.74" cy="384.69" rx="13.16" ry="12.98"/>
<ellipse class="st1" cx="393.02" cy="371.98" rx="13.16" ry="12.98"/>
<ellipse class="st1" cx="342.57" cy="348.93" rx="13.16" ry="12.98"/>
<ellipse class="st1" cx="379.85" cy="335.95" rx="13.16" ry="12.98"/>
</svg>
