<svg id="Layer_1" data-name="Layer 1" xmlns="http://www.w3.org/2000/svg" viewBox="0 0 767.53 256.54"><defs><style>.cls-1{fill:#c6bdbd;stroke:#a59b9b;}.cls-1,.cls-2{stroke-miterlimit:10;stroke-width:3px;}.cls-2{fill:#caded6;stroke:#a3ccba;}.cls-3{fill:#9b8f8f;}</style></defs><title>scizzors3</title><path class="cls-1" d="M579,240.23l-17.36-1c-2.26-10.78-5.73-20.71-11.24-21.44-7.48-1-10.4,22-29.62,41.87a89.6,89.6,0,0,1-25.46,18.3l-18.45,7.23C196.58,292,95.34,309,53.68,320.47,41,324,5.16,333.81,6,339.3s36.5,4,55.18,3.07c43.31-2.06,145.77-8.5,414.69-32.27l28.51-8.59Q541.69,270.88,579,240.23Z" transform="translate(-4.06 -122.45)"/><path class="cls-1" d="M557,314.26l-486.62-25q-65.13-9.57-64.79-16.1.31-6.1,57.76-9.53l506.39,16.75Z" transform="translate(-4.06 -122.45)"/><path class="cls-2" d="M672.16,253.4c-3.77-1.2-58.29-17.68-114.15,5.27-11.74,4.82-35.34,14.52-36.56,30.2-.86,11.06,9.76,20.52,24.35,31.4,45.34,33.84,68,50.76,101.82,55.59,48.6,6.94,116-8.65,122-39.23C775.82,305.27,715.65,267.21,672.16,253.4Zm55.77,88.54-.47.2a27.05,27.05,0,0,1-9.23,5.42c-8,2.88-19.6,4.78-29,2.42-.51,0-1-.07-1.52-.07-1.36.19-2.7.46-4.05.74a11.74,11.74,0,0,1-5.79-.23,58.91,58.91,0,0,1-22.57-3,93.35,93.35,0,0,1-32.06-8.12c-12.41-5.48-24.87-13-32.92-24.22a14.36,14.36,0,0,1-2.84-10.53,19.7,19.7,0,0,1,6.36-19.62c8.38-7,19.56-6.15,29.92-5.15a124.94,124.94,0,0,1,30.75.27c15,1.79,30.7,5.14,44.09,12.4,10,5.43,20.63,12.84,28,21.5a28.53,28.53,0,0,1,6.28,11.28c.07.12.16.23.23.35C736.55,330.93,733.54,339.4,727.93,341.94Z" transform="translate(-4.06 -122.45)"/><path class="cls-2" d="M730.47,157.29c-10.15-29.94-65-40.1-104-28.9-64.83,18.6-99.78,100.1-85.11,117.15,4.72,5.47,12,1.39,48.17-1,53-3.49,58.45,3.91,77.88-2.08C704.28,231.08,740.59,187.16,730.47,157.29Zm-73.33,61.06c-13,8.69-32.8,17.79-48.37,10.52a15.83,15.83,0,0,1-4.63-3.23c-12.59-2.57-22.51-18.31-24.22-30-4-27.66,25.89-39.29,44.71-51.42,3.15-2,7.12-1.74,10.45-.12a48.11,48.11,0,0,1,18.65-4.61,26.66,26.66,0,0,1,19.12,7.39,12.84,12.84,0,0,1,3.69,1.71c8.82,5.83,14.3,15.43,13.33,26.15C688.18,193.53,671.87,208.51,657.14,218.35Z" transform="translate(-4.06 -122.45)"/><circle class="cls-3" cx="397.24" cy="167.8" r="8.82"/><path class="cls-1" d="M425.77,190.19" transform="translate(-4.06 -122.45)"/></svg>