<svg id="Layer_1" data-name="Layer 1" xmlns="http://www.w3.org/2000/svg" viewBox="0 0 714.6 539.59"><defs><style>.cls-1{fill:#fcfcfc;}.cls-1,.cls-2,.cls-4{stroke:#c6bdbd;}.cls-1,.cls-2,.cls-4,.cls-6,.cls-7,.cls-8{stroke-miterlimit:10;}.cls-1,.cls-4,.cls-8{stroke-width:10px;}.cls-2,.cls-5{fill:#deccca;}.cls-2{stroke-width:3px;}.cls-3{fill:#baacab;}.cls-4,.cls-6,.cls-7,.cls-8{fill:none;}.cls-6,.cls-7,.cls-8{stroke:#898383;}.cls-6{stroke-width:8px;}.cls-7{stroke-width:9px;}</style></defs><title>sewmachine2</title><path class="cls-1" d="M717.53,53.75a19.39,19.39,0,0,0-19.39-19.38H78.75A19.38,19.38,0,0,0,59.37,53.75V318.42A18.23,18.23,0,0,0,77.6,336.66H239l13.26-37,17.49-60.88q61.16-2.46,126.39-2.38,55.78.14,108.61,2.29,1.95,49.1,2.49,101.23c.46,47.59-.12,93.4-1.5,137.29H82.07a22.7,22.7,0,0,0-22.7,22.71v41.32A22.7,22.7,0,0,0,82.07,564H689.72a22.71,22.71,0,0,0,22.71-22.71V246.42a19.33,19.33,0,0,0,5.1-13.07Z" transform="translate(-54.37 -29.37)"/><rect class="cls-2" x="633.34" y="117.54" width="204.98" height="63.27" rx="14.74" transform="translate(830.65 -616.03) rotate(90)"/><circle class="cls-2" cx="537.34" cy="128.29" r="36.48"/><circle class="cls-2" cx="519.99" cy="440.53" r="13.01"/><rect class="cls-3" x="561.06" y="231.6" width="12.76" height="162.24"/><line class="cls-4" x1="100.09" y1="3.51" x2="100.09" y2="307.46"/><line class="cls-4" x1="48.56" y1="5" x2="48.56" y2="305.97"/><line class="cls-4" x1="190.14" y1="447.86" x2="190.14" y2="536.1"/><rect class="cls-5" x="62" y="477.22" width="180.7" height="86.73" rx="14.74" transform="translate(250.32 1011.82) rotate(180)"/><path class="cls-4" d="M62,99.58a1805.46,1805.46,0,0,1,638.32,0" transform="translate(-54.37 -29.37)"/><line class="cls-6" x1="668.25" y1="93.96" x2="670.2" y2="217.01"/><line class="cls-7" x1="698.15" y1="171.92" x2="698.4" y2="218.5"/><path class="cls-8" d="M130.42,404.32c-1,15.76-1.58,18.94-2,18.93-.77,0-1.12-13.21-1.27-18.93-.38-14.29-.21-25.81,0-33.28h3.23Z" transform="translate(-54.37 -29.37)"/><rect class="cls-2" x="48.56" y="303.03" width="51.53" height="63.01" rx="12.24"/><line class="cls-7" x1="537.34" y1="128.29" x2="608.45" y2="128.29"/></svg>