<?xml version="1.0" encoding="utf-8"?>
<!-- Generator: Adobe Illustrator 25.0.0, SVG Export Plug-In . SVG Version: 6.00 Build 0)  -->
<svg version="1.1" id="Layer_1" xmlns="http://www.w3.org/2000/svg" xmlns:xlink="http://www.w3.org/1999/xlink" x="0px" y="0px"
	 viewBox="0 0 1920 1080" style="enable-background:new 0 0 1920 1080;" xml:space="preserve">
<style type="text/css">
	.st0{fill:#C69C6D;}
</style>
<path class="st0" d="M1114,380c0,0,103.28,430.03,98,576c-0.53,14.66-14,57-14,57h512l-8.46-60.32l121-546.22L1778,385l-29-15
	l-23-21l-20-29l-15-28l-19-43l-19-44l-20-32l-24-28l-24-19l-35-24l-28-11l-20-3l-27-2c0,0-25,0-41,5c-12.32,3.85-48,19-48,19
	s-24.54,16.57-32,23c-9.51,8.19-35,36-35,36l-23,28l-16,24l-13,19l-12,19l-13,22c0,0-9.57,17.75-13,23c-5.03,7.7-22,27-22,27l-12,12
	l-25,16l-24,11L1114,380z"/>
</svg>
