<?xml version="1.0" encoding="utf-8"?>
<!-- Generator: Adobe Illustrator 25.0.0, SVG Export Plug-In . SVG Version: 6.00 Build 0)  -->
<svg version="1.1" id="Layer_1" xmlns="http://www.w3.org/2000/svg" xmlns:xlink="http://www.w3.org/1999/xlink" x="0px" y="0px"
	 viewBox="0 0 1920 1080" style="enable-background:new 0 0 1920 1080;" xml:space="preserve">
<style type="text/css">
	.st0{fill:#C69C6D;}
	.st1{fill:#FFFFFF;stroke:#000000;stroke-miterlimit:10;}
</style>
<path class="st0" d="M1679,1011l31-692l-14.9,6l-36.81,2.31l-36-16L1599,290l-18-46l-14-56l-11-60l-1-33l-152.67,31.26L1411,162
	l9,33c0,0,5.49,26.63,6,35c0.65,10.7,2,44,2,44l-4.37,32.52l-16.48,34.38L1383,372l-24,17l-30,13h-21l13,73l14,66l6.02,56.18l-2,50
	L1325,691l-21.73,54.91l-20,71.58L1271,873l-13,62l-4,23v24l174,24l130.18,5H1679z"/>
<path class="st1" d="M1555.5,96.5"/>
<polygon class="st0" points="1681,347 1664,987 1279,965 1361,654 1368,600 1338,436 1387,408 1428,371 1459,330 1457,265 1448,218 
	1437,166 1431,142 1528,121 1534,179 1555.5,250.28 1555.5,289.16 1586,335 1614,350 "/>
<g>
	<g>
		<path class="st0" d="M1426.26,143.77c14.6,0.23,29,5.95,43.64,3.26c11.76-2.16,21.05-10.21,31.19-15.93
			c5.55-3.13,11.52-5.54,17.99-5.42c1.93,0.04,1.93-2.96,0-3c-11.83-0.23-21.65,7.11-31.2,13.12c-4.85,3.05-9.89,5.99-15.45,7.56
			c-6.93,1.97-14.23,1.54-21.28,0.55c-8.28-1.16-16.49-3.02-24.88-3.15C1424.32,140.74,1424.32,143.74,1426.26,143.77
			L1426.26,143.77z"/>
	</g>
</g>
<g>
	<g>
		<path class="st0" d="M1534.02,118.24c-3.5,20.59-4.59,41.55-3.24,62.39c1.35,20.83,5.07,41.52,11.13,61.49
			c5.96,19.69,14.11,38.91,24.66,56.59c9.97,16.72,22.64,32.32,39.04,43.1c16.18,10.63,36.14,16.38,55.47,13.34
			c2.36-0.37,4.69-0.88,7-1.52c1.86-0.51,1.07-3.41-0.8-2.89c-18.56,5.13-38.52,0.96-55.04-8.39
			c-16.76-9.48-29.88-24.28-40.14-40.37c-10.75-16.86-19.04-35.38-25.3-54.35c-6.41-19.43-10.61-39.59-12.47-59.97
			c-1.85-20.36-1.43-40.97,1.43-61.22c0.35-2.48,0.74-4.95,1.16-7.41C1537.23,117.15,1534.34,116.34,1534.02,118.24L1534.02,118.24z
			"/>
	</g>
</g>
<g>
	<g>
		<path class="st0" d="M1679.1,354.32c-10.41,38.86-14.09,78.73-12.41,118.87c0.84,20.07,2.5,40.09,3.12,60.16
			c0.64,20.71,0.33,41.43-0.49,62.13c-1.62,41.07-4.89,82.08-7.68,123.08c-2.79,41.1-5.59,82.2-8.38,123.3
			c-3.13,46.08-6.27,92.17-9.4,138.25c-0.13,1.93,2.87,1.92,3,0c5.59-82.2,11.18-164.41,16.77-246.61
			c2.76-40.61,5.9-81.22,7.97-121.87c1.05-20.69,1.71-41.41,1.54-62.12c-0.17-20.16-1.47-40.25-2.62-60.37
			c-1.28-22.32-1.9-44.62-0.13-66.93c1.8-22.67,5.74-45.13,11.62-67.09C1682.49,353.25,1679.6,352.45,1679.1,354.32L1679.1,354.32z"
			/>
	</g>
</g>
<g>
	<g>
		<path class="st0" d="M1645.29,985.21c-7.85-5.98-17.95-7.2-27.53-7.32c-11.86-0.15-23.77,0.42-35.63,0.68
			c-24.69,0.54-49.38,1.07-74.07,1.61c-12.46,0.27-24.92,0.54-37.38,0.81c-12.1,0.26-24.22,0.69-36.32,0.31
			c-11.72-0.37-23.31-1.72-34.69-4.59c-10.49-2.65-20.72-6.18-31.02-9.47c-19.43-6.21-40.42-12.23-60.83-7.23
			c-2.51,0.61-4.97,1.4-7.38,2.33c-1.78,0.68-1.01,3.59,0.8,2.89c19.76-7.59,40.77-3.03,60.31,2.93
			c10.26,3.13,20.39,6.71,30.71,9.66c10.85,3.1,21.84,5.2,33.11,6.03c11.88,0.87,23.81,0.62,35.71,0.36
			c12.23-0.27,24.46-0.53,36.69-0.8c24.46-0.53,48.92-1.06,73.38-1.59c12.23-0.27,24.46-0.53,36.69-0.8
			c9.84-0.21,20.37-0.79,29.64,3.12c2.25,0.95,4.35,2.19,6.28,3.67C1645.31,988.97,1646.8,986.36,1645.29,985.21L1645.29,985.21z"/>
	</g>
</g>
<g>
	<g>
		<path class="st0" d="M1288.59,966.49c-8.89-35.16,5.45-70.24,20.12-101.68c7.42-15.9,15.2-31.61,21.85-47.86
			c6.64-16.23,12.4-32.83,17.27-49.68c9.65-33.38,15.79-67.77,18.38-102.42c2.59-34.65,1.55-69.56-3.12-103.99
			c-2.48-18.28-6.36-36.28-9.89-54.37c-3.62-18.55-6.7-37.37-6.23-56.33c0.12-4.75,0.47-9.49,1.05-14.21c0.24-1.91-2.77-1.89-3,0
			c-4.63,37.6,6.86,74.44,12.98,111.17c5.8,34.78,7.73,70.21,5.97,105.42c-1.76,35.23-7.26,70.26-16.37,104.33
			c-4.53,16.94-9.96,33.65-16.27,50.02c-6.43,16.67-14.04,32.78-21.69,48.91c-14.55,30.65-30.32,64.28-26.23,99.14
			c0.49,4.16,1.25,8.27,2.28,12.33C1286.17,969.16,1289.07,968.37,1288.59,966.49L1288.59,966.49z"/>
	</g>
</g>
<g>
	<g>
		<path class="st0" d="M1352.57,424.77c17.17-10.25,32.87-22.93,46.58-37.49c13.71-14.55,25.48-30.96,34.82-48.64
			c9.71-18.36,16.73-38.05,20.85-58.4c4.92-24.29,6.1-49.16,6.1-73.88c0-11.96,0.43-24.39-2.77-36.03
			c-2.59-9.43-8.13-18.54-16.79-23.5c-2-1.15-4.15-2.03-6.37-2.64c-1.86-0.51-2.66,2.38-0.8,2.89c9.25,2.53,16.03,10.47,19.45,19.16
			c4.3,10.93,4.18,22.97,4.26,34.53c0.16,24.2-0.59,48.54-4.79,72.42c-3.59,20.4-9.9,40.21-19.1,58.78
			c-8.67,17.5-19.68,33.84-32.65,48.44c-12.92,14.54-27.76,27.38-44.12,37.92c-2.04,1.32-4.11,2.59-6.2,3.84
			C1349.4,423.17,1350.9,425.77,1352.57,424.77L1352.57,424.77z"/>
	</g>
</g>
</svg>
