<?xml version="1.0" encoding="utf-8"?>
<!-- Generator: Adobe Illustrator 25.0.0, SVG Export Plug-In . SVG Version: 6.00 Build 0)  -->
<svg version="1.1" id="Layer_1" xmlns="http://www.w3.org/2000/svg" xmlns:xlink="http://www.w3.org/1999/xlink" x="0px" y="0px"
	 viewBox="0 0 1920 1080" style="enable-background:new 0 0 1920 1080;" xml:space="preserve">
<style type="text/css">
	.st0{fill:#C69C6D;stroke:#000000;stroke-miterlimit:10;}
</style>
<path class="st0" d="M425.5,88.5h257.14c0,0-0.8,20.14-1.69,50.41c-2.1,71.4-4.67,199.13,1.69,251.81
	c2.44,20.22,7.86,78.78,8.86,88.78c1.1,10.99,5.83,40.46,7,53c0.79,8.54,6.47,35.49,6.47,35.49l11,45.82l12.53,48.69l17,59l19,52
	l19,51l24,65l26,56l-27,16l-29,15l-34,13l-31,12l-40,10l-41,7l-53,5l-45.44,0.1l-57.56-3.1l-51-11l-44-12l-34-13l-36-14l-30-12
	l24-56l15-34l18-37l11-33l12-38l12-32l8-31l8-49l8-37l10-54l6-52l6-45l5-53l2-59v-57l1-68c0,0,1.06-42.75,1-57
	C427.42,146.99,425.5,88.5,425.5,88.5z"/>
</svg>
