<?xml version="1.0" encoding="utf-8"?>
<!-- Generator: Adobe Illustrator 25.0.0, SVG Export Plug-In . SVG Version: 6.00 Build 0)  -->
<svg version="1.1" id="Layer_1" xmlns="http://www.w3.org/2000/svg" xmlns:xlink="http://www.w3.org/1999/xlink" x="0px" y="0px"
	 viewBox="0 0 1920 1080" style="enable-background:new 0 0 1920 1080;" xml:space="preserve">
<style type="text/css">
	.st0{fill:#C69C6D;}
	.st1{fill:#FFFFFF;stroke:#000000;stroke-miterlimit:10;}
</style>
<path class="st0" d="M1291.8,990.4l-158.2,24l-118.36,5h-47.25l-0.03,0.6H847.14l-130.18-5l-155.94-21.51c0,0-1.62-16.79-1.1-22.77
	c0.5-5.81,13.98-66.49,19.08-88.56c2.63-11.36,10.8-45.36,10.8-45.36l19.44-58.32l25.92-71.28l6.48-41.04l12.52-51.84l2.16-56.96
	L641.2,469.6l-34.49-63.67l12.37-0.57l28.88-7.36l24-17l24.15-31.1l16.48-34.38l4.37-32.52c0,0-1.35-33.3-2-44c-0.51-8.37-6-35-6-35
	l-9-33l-8.67-35.74l152.39-40.54l-14.12,37.92l-10.8,62.64L833.88,286c0,0,18.33,50.78,28.08,58.32
	c12.19,9.42,55.42,21.6,55.42,21.6l42.62,4.32l29.4-19.44l32.4-34.56l15.12-58.32l4.32-54l-8.64-73.44l-14.47-27.08l138.81,31.26
	l-7.89,35.74l-8.18,33c0,0-4.99,26.63-5.45,35c-0.6,10.7-1.82,44-1.82,44l3.97,32.52l14.98,34.38l21.96,31.1l21.82,17l27.28,13
	h19.09c0,0-22.34,41.98-24.78,57.04c-0.52,3.19-4.32,23.76-4.32,23.76l-17.28,66.16v56.96l4.32,62.64l10.8,47.52l23.76,66.96
	l12.96,54l17.28,60.48l12.96,51.84L1291.8,990.4z"/>
<path class="st1" d="M1555.5,96.5"/>
</svg>
