<?xml version="1.0" encoding="utf-8"?>
<!-- Generator: Adobe Illustrator 25.0.0, SVG Export Plug-In . SVG Version: 6.00 Build 0)  -->
<svg version="1.1" id="Layer_1" xmlns="http://www.w3.org/2000/svg" xmlns:xlink="http://www.w3.org/1999/xlink" x="0px" y="0px"
	 viewBox="0 0 595.28 841.89" style="enable-background:new 0 0 595.28 841.89;" xml:space="preserve">
<style type="text/css">
	.st0{fill:#E8E5D1;stroke:#000000;stroke-miterlimit:10;}
	.st1{stroke:#000000;stroke-miterlimit:10;}
</style>
<path class="st0" d="M272.19,591.57c12.14-20.34,11.99-40.64,1.29-51.8l1.41,0.29c18.83-33.16,42.62-80.16,66.67-132.66
	c47.1-102.84,77.36-187.89,67.56-189.94c-9.78-2.04-55.93,79.68-103.03,182.53c-23.17,50.58-42.27,96.86-54.52,131.07
	c-20.91-0.36-46.04,15.21-59.84,38.35c-15.87,26.6-10.7,53.11,11.52,59.23C225.47,634.77,256.33,618.17,272.19,591.57z
	 M209.14,574.19c13.24-22.22,36.38-36.82,51.66-32.61c15.29,4.21,16.93,25.64,3.67,47.86c-13.24,22.21-36.36,36.81-51.65,32.6
	C197.54,617.83,195.88,596.4,209.14,574.19z"/>
<path class="st0" d="M361.67,631.6c19.13-5.4,21.99-31.81,6.42-58.98c-11.37-19.84-29.42-34.6-45.78-39.03
	c-13.08-34.25-33.48-80.86-58.18-131.79C214.52,299.5,166.4,218.44,156.64,220.79c-9.75,2.34,22.56,87.19,72.17,189.51
	c24.34,50.18,48.28,95.23,67.56,127.84c-10.71,10.15-10.29,31.82,2.44,54.03C314.4,619.33,342.54,637.01,361.67,631.6z
	 M313.01,589.52c-13.03-22.73-12.57-44.24,1-48.07c13.57-3.83,35.11,11.49,48.14,34.2c13.03,22.72,12.61,44.24-0.98,48.07
	C347.6,627.54,326.04,612.22,313.01,589.52z"/>
<line class="st0" x1="295.91" y1="471.78" x2="263.24" y2="480.15"/>
<polygon class="st0" points="275.94,485.37 283.22,480.19 292.8,481.78 295.09,488.55 287.81,493.72 278.23,492.14 "/>
<line class="st0" x1="307.57" y1="478.39" x2="298.11" y2="475.2"/>
<ellipse transform="matrix(0.9998 -0.02 0.02 0.9998 -9.7021 5.82)" class="st1" cx="285.52" cy="486.96" rx="3.75" ry="2.59"/>
</svg>
