<?xml version="1.0" encoding="utf-8"?>
<!-- Generator: Adobe Illustrator 25.0.1, SVG Export Plug-In . SVG Version: 6.00 Build 0)  -->
<svg version="1.1" id="Layer_1" xmlns="http://www.w3.org/2000/svg" xmlns:xlink="http://www.w3.org/1999/xlink" x="0px" y="0px"
	 viewBox="0 0 595.28 841.89" style="enable-background:new 0 0 595.28 841.89;" xml:space="preserve">
<style type="text/css">
	.st0{fill:#E8E5D1;stroke:#000000;stroke-miterlimit:10;}
	.st1{fill:none;stroke:#000000;stroke-miterlimit:10;}
	.st2{stroke:#000000;stroke-miterlimit:10;}
</style>
<path class="st0" d="M315.77,106.28c-22.75,38.31-22.38,76.49-2.21,97.43l-2.65-0.54c-35.28,62.45-79.82,150.95-124.84,249.8
	C97.92,646.6,41.37,806.7,59.81,810.51c18.4,3.8,104.86-150.1,193.01-343.75c43.37-95.23,79.09-182.36,101.99-246.75
	c39.33,0.59,86.53-28.8,112.39-72.38c29.74-50.1,19.9-99.94-21.92-111.35C403.46,24.83,345.49,56.19,315.77,106.28z M434.43,138.71
	c-24.81,41.85-68.27,69.41-97.03,61.55c-28.78-7.85-31.95-48.15-7.11-90c24.81-41.83,68.23-69.39,97.01-61.53
	C456.07,56.58,459.28,96.88,434.43,138.71z"/>
<path class="st0" d="M147.3,31.37c-35.96,10.24-41.23,59.92-11.83,110.96c21.47,37.27,55.48,64.95,86.27,73.22
	c24.75,64.36,63.31,151.94,109.99,247.63c93.74,192.2,184.59,344.46,202.94,340c18.33-4.44-42.8-163.9-136.54-356.14
	c-45.99-94.28-91.21-178.91-127.61-240.16c20.1-19.14,19.22-59.89-4.82-101.61C236.26,54.25,183.26,21.11,147.3,31.37z M239,110.31
	c24.6,42.7,23.83,83.16-1.68,90.42s-66.09-21.46-90.69-64.12c-24.6-42.68-23.9-83.16,1.64-90.42
	C173.78,38.95,214.4,67.67,239,110.31z"/>
<line class="st1" x1="271.66" y1="331.69" x2="333.08" y2="315.81"/>
<polygon class="st0" points="309.17,306.05 295.5,315.82 277.47,312.87 273.14,300.15 286.81,290.39 304.83,293.32 "/>
<line class="st1" x1="249.71" y1="319.31" x2="267.51" y2="325.27"/>
<ellipse transform="matrix(0.9998 -0.0222 0.0222 0.9998 -6.6702 6.5527)" class="st2" cx="291.18" cy="303.07" rx="7.05" ry="4.87"/>
</svg>
