<?xml version="1.0" encoding="utf-8"?>
<!-- Generator: Adobe Illustrator 25.0.1, SVG Export Plug-In . SVG Version: 6.00 Build 0)  -->
<svg version="1.1" id="Layer_1" xmlns="http://www.w3.org/2000/svg" xmlns:xlink="http://www.w3.org/1999/xlink" x="0px" y="0px"
	 viewBox="0 0 595.28 841.89" style="enable-background:new 0 0 595.28 841.89;" xml:space="preserve">
<style type="text/css">
	.st0{fill:#E9BBBD;stroke:#000000;stroke-miterlimit:10;}
	.st1{fill:#76909F;stroke:#000000;stroke-miterlimit:10;}
	.st2{stroke:#000000;stroke-miterlimit:10;}
	.st3{fill:#FFFFFF;stroke:#000000;stroke-miterlimit:10;}
	.st4{fill:#E8E5D1;stroke:#000000;stroke-miterlimit:10;}
</style>
<path class="st0" d="M285.81,496.43c0,25.24-46.83,45.7-104.57,45.7c-57.76,0-104.57-20.46-104.57-45.7c0-1.3,0.12-2.57,0.37-3.85
	c7.78,21.87,51.09,38.62,103.32,38.62c54.79,0,99.74-18.41,104.19-41.85C285.39,491.67,285.81,494.03,285.81,496.43z"/>
<path class="st1" d="M188.74,334.72c-0.6,1.78-4.7,3.17-9.65,3.17c-4.95,0-9.04-1.39-9.65-3.17H188.74z"/>
<path class="st1" d="M188.82,334.26c0,0.15-0.02,0.31-0.08,0.46c-0.6,1.78-4.7,3.17-9.65,3.17c-4.95,0-9.04-1.39-9.65-3.17
	c-0.06-0.15-0.08-0.31-0.08-0.46c0-2.01,4.37-3.64,9.73-3.64C184.46,330.62,188.82,332.24,188.82,334.26z"/>
<path class="st1" d="M284.7,347.19c0,0.79-0.04,1.57-0.15,2.36v-4.72C284.66,345.63,284.7,346.4,284.7,347.19z"/>
<path class="st0" d="M180.37,289.04c-57.12,0-103.57,20.02-104.55,44.86v0.06l0.06,2.2v0.12c0.08,1.45,0.35,2.88,0.77,4.31
	c2.54,8.59,10.5,16.42,22.37,22.84c0.35,0.19,0.71,0.39,1.06,0.56c0.4,0.21,0.79,0.41,1.19,0.62c0.25,0.12,0.48,0.23,0.71,0.35
	c1.79,0.89,3.66,1.74,5.59,2.57c5.01,2.11,10.5,4.02,16.41,5.69c0,0,0,0,0.02,0c12.14,3.38,25.99,5.72,40.84,6.69
	c3.99,0.27,8.07,0.43,12.21,0.46c1.1,0.04,2.2,0.04,3.33,0.04c17.88,0,34.72-1.97,49.45-5.41c9.56-2.26,18.21-5.12,25.7-8.51
	c1.31-0.58,2.58-1.2,3.83-1.82c0.27-0.14,0.56-0.29,0.85-0.44c0.25-0.12,0.5-0.25,0.75-0.39c0.21-0.1,0.42-0.21,0.62-0.33
	c11.62-6.25,19.52-13.87,22.29-22.2c0.31-0.91,0.54-1.84,0.71-2.77c0.25-1.26,0.37-2.53,0.37-3.83
	C284.93,309.5,238.11,289.04,180.37,289.04z M188.75,334.72c-0.6,1.78-4.7,3.17-9.65,3.17c-2.47,0-4.74-0.35-6.45-0.91
	c-0.04-0.02-0.06-0.02-0.08-0.04c-1.68-0.56-2.83-1.35-3.12-2.22c-0.06-0.15-0.08-0.31-0.08-0.46c0-0.64,0.42-1.22,1.16-1.74
	c0.06-0.04,0.12-0.08,0.19-0.1c1.71-1.08,4.82-1.8,8.38-1.8c5.36,0,9.73,1.62,9.73,3.64C188.83,334.41,188.81,334.57,188.75,334.72z
	"/>
<path class="st1" d="M188.82,334.26c0,0.15-0.02,0.31-0.08,0.46c-0.6,1.78-4.7,3.17-9.65,3.17c-4.95,0-9.04-1.39-9.65-3.17
	c-0.06-0.15-0.08-0.31-0.08-0.46c0-2.01,4.37-3.64,9.73-3.64C184.46,330.62,188.82,332.24,188.82,334.26z"/>
<line class="st1" x1="284.55" y1="350.48" x2="284.55" y2="349.55"/>
<polyline class="st1" points="284.55,344.83 284.55,338.55 284.55,337 "/>
<line class="st1" x1="284.92" y1="485.99" x2="285.8" y2="495.56"/>
<path class="st1" d="M253.47,379.74c-12.93,16.75-40.09,28.41-71.57,28.66c-31.44,0.25-58.76-10.91-72.05-27.38
	c6.92,2.75,14.72,5.11,23.16,6.98c14.16,3.11,30.17,4.87,47.12,4.87c18.24,0,35.41-2.03,50.34-5.63
	C238.91,385.21,246.65,382.68,253.47,379.74z"/>
<path class="st1" d="M100.35,389.51l-0.28-6.3c1.3,0.63,2.64,1.21,4.01,1.78c10.18,21.2,42.31,35.67,79.49,33.93
	c36.63-1.74,66.69-18.7,75-40.3c-0.11,1.63-0.37,3.25-0.76,4.83l0.6,0c-5.35,23.94-37.15,43.41-76.54,45.28
	C141.66,430.6,107.39,413.55,100.35,389.51z"/>
<path class="st1" d="M259.32,377.03c-0.17,2.01-0.52,4-1.04,5.94l-0.6-0.02c0.46-1.57,0.79-3.17,0.98-4.8
	c-9.27,21.25-40.07,37.03-76.75,37.34c-37.22,0.29-68.68-15.41-77.89-36.99c1.85,0.87,3.81,1.7,5.82,2.49c0,0,0.02,0,0.02,0.02
	c6.92,2.75,14.72,5.11,23.16,6.98c14.16,3.11,30.17,4.87,47.12,4.87c18.24,0,35.41-2.03,50.34-5.63c8.44-2.03,16.18-4.56,23-7.5
	c1.75-0.75,3.45-1.53,5.07-2.34c0.08-0.04,0.15-0.06,0.21-0.1c0.12-0.06,0.23-0.12,0.35-0.17
	C259.17,377.11,259.23,377.07,259.32,377.03z"/>
<path class="st1" d="M260.42,401.91v73.87c0,1.08-0.08,2.15-0.25,3.19c0.17,0.79,0.25,1.59,0.25,2.38
	c0,16.59-35.76,30.05-79.91,30.05c-44.12,0-79.91-13.46-79.91-30.05c0-0.5,0.04-1.01,0.1-1.51c-0.06-0.33-0.12-0.66-0.17-0.99
	c-0.06-0.35-0.1-0.68-0.12-1.01c-0.02-0.23-0.04-0.46-0.06-0.68c-0.02-0.46-0.04-0.93-0.04-1.39v-79.13
	c0.19,0.66,0.42,1.33,0.64,1.97v2.82c-0.02-0.43-0.04-0.85-0.04-1.28l0.04,4.27v2.01c0.94,4.53,2.83,8.88,5.55,12.94
	c12.21,18.22,40.96,30.84,74.38,30.57c33.41-0.27,61.94-13.38,73.79-31.79c2.18-3.38,3.81-6.98,4.78-10.67l-0.21-19.36v-0.31
	c0.02-0.35,0.02-0.68,0.02-1.02l0.21,20.6C259.94,405.6,260.27,403.77,260.42,401.91z"/>
<path class="st1" d="M259.32,377.03c-0.17,2.01-0.52,4-1.04,5.94l-0.6-0.02c0.46-1.57,0.79-3.17,0.98-4.8
	c-9.27,21.25-40.07,37.03-76.75,37.34c-37.22,0.29-68.68-15.41-77.89-36.99c1.85,0.87,3.81,1.7,5.82,2.49c0,0,0.02,0,0.02,0.02
	c6.92,2.75,14.72,5.11,23.16,6.98c14.16,3.11,30.17,4.87,47.12,4.87c18.24,0,35.41-2.03,50.34-5.63c8.44-2.03,16.18-4.56,23-7.5
	c1.75-0.75,3.45-1.53,5.07-2.34c0.08-0.04,0.15-0.06,0.21-0.1c0.12-0.06,0.23-0.12,0.35-0.17
	C259.17,377.11,259.23,377.07,259.32,377.03z"/>
<path class="st1" d="M259.64,443.08c0.02,1.99-0.15,3.98-0.5,5.92c-0.08,0.41-0.15,0.83-0.25,1.24c-0.17,0.77-0.35,1.53-0.58,2.26
	v0.04c-6.78,23.42-39.22,41.33-78.33,41.65c-44.27,0.35-80.37-21.93-80.61-49.8l-0.02-2.65l-0.02-1.12l-0.1-10.44c0,0,0,0,0-0.02
	l-0.02-2.3v-0.17l-0.17-17.54l-0.02-1.97v-0.15l-0.02-2.15c0,0.21,0,0.43,0.02,0.64c0,0.21,0.02,0.43,0.02,0.64
	c0.08,1.7,0.31,3.36,0.64,5.01c0.94,4.53,2.83,8.88,5.55,12.94c12.21,18.22,40.96,30.84,74.38,30.57
	c33.41-0.27,61.94-13.38,73.79-31.79c2.18-3.38,3.81-6.98,4.78-10.67c0-0.04,0.02-0.06,0.02-0.1c0.46-1.8,0.79-3.64,0.94-5.49
	c0.08-0.91,0.12-1.84,0.12-2.77L259.64,443.08z"/>
<path class="st0" d="M284.61,345.51l-0.08,4.72c-0.19,1.24-0.46,2.46-0.83,3.64c-0.73,2.26-1.81,4.45-3.24,6.56
	c-4.22,6.17-11.39,11.74-20.79,16.44l-0.12,6.13l-1.25-0.02l-0.6-0.02c0.46-1.57,0.79-3.17,0.98-4.8c0.04-0.29,0.08-0.56,0.1-0.85
	c-0.06,0.04-0.12,0.06-0.21,0.1c-1.81,0.87-3.7,1.72-5.68,2.51c-2.43,1.01-4.97,1.95-7.61,2.84c-4.84,1.62-10.02,3.07-15.51,4.29
	c-14.99,3.36-32.21,5.12-50.44,4.83c-16.95-0.27-32.92-2.28-47.01-5.63c-6.65-1.59-12.87-3.48-18.59-5.59
	c-1.52-0.56-3.02-1.16-4.45-1.76c0-0.02-0.02-0.02-0.02-0.02c-2-0.83-3.95-1.68-5.78-2.59c-1.33-0.64-2.64-1.3-3.89-1.99
	c-0.31-0.15-0.6-0.31-0.91-0.5c-12.33-6.83-20.42-15.16-22.5-24.19l-0.02-9.22v-0.04c0.06-0.29,0.12-0.58,0.21-0.89
	c0.12-0.48,0.27-0.99,0.46-1.49c2.37,8.62,10.19,16.59,21.96,23.19c0.33,0.21,0.69,0.41,1.04,0.58c0.4,0.23,0.79,0.43,1.19,0.64
	c0.23,0.12,0.46,0.25,0.69,0.37c1.77,0.91,3.64,1.8,5.55,2.65c4.97,2.19,10.42,4.2,16.3,5.96c0,0,0,0,0.02,0
	c16.2,4.8,35.47,7.75,56.22,8.08c17.88,0.29,34.77-1.41,49.53-4.62c8.05-1.76,15.47-3.96,22.1-6.58c1.29-0.48,2.54-1.01,3.76-1.53
	c1.31-0.56,2.6-1.16,3.85-1.76c0.29-0.14,0.58-0.27,0.87-0.43c0.25-0.12,0.5-0.25,0.75-0.39c0.21-0.08,0.42-0.19,0.62-0.31
	c2.52-1.3,4.84-2.65,6.99-4.06c2.93-1.91,5.53-3.96,7.74-6.09c3.81-3.64,6.53-7.56,7.98-11.7
	C284.28,343.15,284.51,344.33,284.61,345.51z"/>
<path class="st1" d="M259.26,417.4c0.02,1.37-0.06,2.75-0.23,4.1v0.08c-3.12,25.95-37.41,46.59-79.43,46.93
	c-39.57,0.31-72.61-17.44-79.35-41.13c-0.02-0.04-0.04-0.06-0.04-0.1c-0.1-0.35-0.19-0.7-0.27-1.04c0-0.02-0.02-0.06-0.02-0.08
	c-0.21-0.87-0.39-1.74-0.52-2.63c-0.27-1.59-0.39-3.19-0.42-4.82l-0.06-7.08c0.1,0.72,0.23,1.43,0.37,2.15
	c0.19,0.81,0.4,1.64,0.62,2.44V396.8l-0.04-4.27c0,0.37,0.02,0.75,0.04,1.12v-4.64c0,0.02,0.02,0.06,0.02,0.08
	c0.19,0.66,0.42,1.32,0.64,1.95v1.74c-0.02-0.43-0.04-0.85-0.04-1.28l0.04,4.27v2.01c0.94,4.53,2.83,8.88,5.55,12.94
	c12.21,18.22,40.96,30.84,74.38,30.57c33.41-0.27,61.94-13.38,73.79-31.79c2.18-3.38,3.81-6.98,4.78-10.67v0.93l0.1,10.19
	L259.26,417.4z"/>
<path class="st1" d="M259.65,396.85c-0.98,3.69-2.6,7.29-4.78,10.67c-11.85,18.41-40.38,31.52-73.79,31.79
	c-33.41,0.27-62.17-12.36-74.38-30.57c-2.72-4.06-4.62-8.41-5.55-12.94v-2.01l-0.04-4.27c0,0.43,0.02,0.85,0.04,1.28v-2.82
	c1.04,2.94,2.47,5.74,4.28,8.43c12.21,18.22,40.96,30.84,74.38,30.57c33.41-0.27,61.94-13.38,73.79-31.79
	c3.53-5.49,5.57-11.45,5.84-17.69L259.65,396.85z"/>
<path class="st1" d="M256.8,377.56c-0.16,0.39-0.31,0.75-0.49,1.14c-9.91,23.61-41.5,40.69-78.67,40.35
	c-37.72-0.38-69.22-18.55-78.03-42.89c1.85,1.01,3.81,1.98,5.84,2.9c0,0,0.02,0,0.02,0.02c6.95,3.2,14.79,5.99,23.3,8.25
	c14.27,3.75,30.45,6.03,47.62,6.35c18.48,0.35,35.93-1.6,51.14-5.35c8.6-2.11,16.5-4.8,23.48-7.96c1.79-0.81,3.53-1.64,5.2-2.52
	c0.09-0.04,0.15-0.06,0.21-0.1C256.57,377.68,256.67,377.62,256.8,377.56z"/>
<path class="st1" d="M230.47,387.24c-13.43,6.61-30.27,10.62-48.59,10.77c-18.34,0.15-35.29-3.6-48.86-10.02
	c14.16,3.11,30.17,4.87,47.12,4.87C198.37,392.87,215.54,390.84,230.47,387.24z"/>
<path class="st2" d="M178.79,295.81c-52.63,0-95.44,17.08-96.33,38.29v0.04l0.06,1.9v0.1c0.08,1.24,0.33,2.46,0.71,3.67
	c2.33,7.33,9.67,14,20.63,19.49c0.31,0.15,0.64,0.33,0.98,0.48c0.35,0.17,0.73,0.33,1.08,0.52c0.23,0.1,0.44,0.19,0.64,0.29
	c1.66,0.75,3.39,1.49,5.16,2.2c4.62,1.8,9.69,3.42,15.12,4.85c0,0,0,0,0.02,0c13.35,3.44,28.9,5.61,45.62,6.05
	c2.08,0.06,4.2,0.08,6.32,0.08h1.39c15.97-0.1,30.98-1.76,44.19-4.62c8.82-1.93,16.78-4.37,23.68-7.25c1.21-0.5,2.37-1.02,3.51-1.57
	c0.25-0.12,0.52-0.23,0.79-0.37c0.23-0.1,0.46-0.21,0.69-0.33c0.21-0.1,0.4-0.19,0.58-0.29c10.71-5.32,17.99-11.84,20.54-18.93
	c0.29-0.79,0.5-1.59,0.64-2.36c0.23-1.08,0.35-2.17,0.35-3.27C275.16,313.27,232.02,295.81,178.79,295.81z M168.74,334.8
	c-0.06-0.14-0.08-0.27-0.08-0.41c0-0.72,0.69-1.35,1.87-1.88c0.06-0.04,0.12-0.08,0.19-0.1c1.64-0.7,4.14-1.12,6.9-1.12
	c4.95,0,8.98,1.37,8.98,3.09c0,0.14-0.02,0.27-0.08,0.41c-0.56,1.51-4.32,2.71-8.9,2.71c-1.83,0-3.56-0.19-4.97-0.52
	c-0.04-0.02-0.06-0.02-0.08-0.04C170.51,336.46,169.05,335.69,168.74,334.8z M197.71,334.35c0,3.63-8.71,6.57-19.46,6.57
	c-10.75,0-19.46-2.94-19.46-6.57c0-3.63,8.71-6.57,19.46-6.57C188.99,327.78,197.71,330.72,197.71,334.35z"/>
<path class="st1" d="M565.52,321.74c0,39.16-58.62,70.89-130.91,70.89c-18.38,0-35.87-2.05-51.73-5.76
	c-0.91-0.19-1.79-0.41-2.68-0.64c-2.31-0.56-4.6-1.18-6.84-1.82c-0.69-0.19-1.39-0.41-2.08-0.62c-40.32-12.07-67.6-35.33-67.6-62.06
	c0-2.15,0.19-4.27,0.54-6.38c1.06,26.9,29.84,50.11,71.47,61.61c25.12-39.06,42.81-64.22,44.87-63.14
	c2.02,1.06-11.42,27.05-33.58,65.91c14.89,3.17,31.13,4.93,48.12,4.93c68.35,0,124.45-28.35,130.39-64.49
	C565.49,320.7,565.52,321.22,565.52,321.74z"/>
<path class="st1" d="M305.12,311.17c-0.4,1.39-0.71,2.78-0.91,4.2c-0.02-0.52-0.04-1.04-0.04-1.57c0-0.87,0.02-1.76,0.1-2.63H305.12
	z"/>
<path class="st3" d="M386.97,379.74c-0.81-0.17-1.6-0.35-2.39-0.54c-2.43-0.54-4.82-1.14-7.17-1.76c-0.58-0.15-1.14-0.31-1.73-0.46
	c25.12-39.06,42.81-64.22,44.87-63.14C422.56,314.9,409.13,340.89,386.97,379.74z"/>
<path class="st4" d="M420.55,313.83c-2.06-1.08-19.75,24.08-44.87,63.14c-1.43,2.22-2.91,4.51-4.41,6.83
	c-13.79,21.6-29.57,46.93-46.1,74.14c-49.38,81.32-86.77,148.63-83.5,150.36c3.29,1.72,45.99-62.81,95.38-144.11
	c17.11-28.16,32.79-54.65,45.83-77.31c1.39-2.42,2.77-4.8,4.1-7.14C409.13,340.89,422.56,314.9,420.55,313.83z M384.57,379.2
	c-0.19,0.29-0.35,0.6-0.54,0.89c-1.29,2.13-2.6,4.2-3.85,6.15c-7.3,11.25-13.7,19.13-15.16,18.35c-1.41-0.73,2.16-9.21,8.32-20.17
	c1.25-2.24,2.62-4.58,4.05-6.98c0.12-0.21,0.27-0.43,0.4-0.64c8.77-14.45,17.28-25.43,19-24.52
	C398.48,353.17,393.04,365.14,384.57,379.2z"/>
<path class="st1" d="M305.38,312.13c-0.28,2.13-0.76,4.22-1.39,6.28c2.5-26.81-23-53.12-62.8-69.29l-10.84-4.04
	c-14.37-4.83-30.24-8.44-47.11-10.36c-67.83-7.79-127.25,13.96-137.9,49.16c0.06-0.52,0.09-1.05,0.17-1.57
	c5.15-38.85,67.51-63.69,139.25-55.44c18.24,2.08,35.33,6.1,50.6,11.6c0.88,0.3,1.71,0.62,2.57,0.94c2.22,0.83,4.41,1.69,6.54,2.6
	c0.67,0.26,1.34,0.55,1.99,0.85C284.88,259.42,308.88,285.61,305.38,312.13z"/>
<line class="st1" x1="241.48" y1="249.86" x2="230.68" y2="245.71"/>
<path class="st0" d="M284.93,485.5c0,1.3-0.12,2.57-0.37,3.85c-4.45,23.44-49.4,41.85-104.19,41.85
	c-52.23,0-95.54-16.75-103.32-38.62c-0.83-2.3-1.25-4.66-1.25-7.08c0-3.75,1.04-7.41,2.99-10.89c3.85-6.87,11.25-13.13,21.29-18.37
	v16.98c0,0.46,0.02,0.93,0.04,1.39c0.02,0.21,0.04,0.44,0.06,0.68c0.02,0.35,0.06,0.68,0.12,1.01c0.04,0.33,0.1,0.66,0.17,0.99
	c-0.06,0.5-0.1,1.01-0.1,1.51c0,16.59,35.78,30.05,79.91,30.05c44.14,0,79.91-13.46,79.91-30.05c0-0.79-0.08-1.59-0.25-2.38
	c0.17-1.04,0.25-2.11,0.25-3.19v-17.23C275.62,463.96,284.93,474.27,284.93,485.5z"/>
</svg>
