<svg id="Layer_1" data-name="Layer 1" xmlns="http://www.w3.org/2000/svg" viewBox="0 0 1152 864"><defs><style>.cls-1,.cls-4{fill:#b7925e;}.cls-1,.cls-4,.cls-6{stroke:#896b3a;}.cls-1,.cls-2,.cls-4,.cls-5,.cls-6{stroke-miterlimit:10;}.cls-1,.cls-2,.cls-5,.cls-6{stroke-width:10px;}.cls-2{fill:#ef9ec3;}.cls-2,.cls-5{stroke:#af699f;}.cls-3,.cls-6{fill:#896b3a;}.cls-4{stroke-width:5px;}.cls-5{fill:none;}</style></defs><title>Artboard 1</title><ellipse class="cls-1" cx="576" cy="748.74" rx="306.57" ry="40.4"/><path class="cls-2" d="M814,761.76a2011.16,2011.16,0,0,1-229,14.3,2012.12,2012.12,0,0,1-250.47-14.3V218.92c66.33,10.32,150.62,14.66,246,14.37,91.21-.28,169.2-4.36,233.5-14.37Z"/><ellipse class="cls-1" cx="576" cy="151.77" rx="306.57" ry="56.57"/><path class="cls-3" d="M38.45,236.8a1.5,1.5,0,0,0,0-3,1.5,1.5,0,0,0,0,3Z"/><path class="cls-4" d="M882.26,200.51c-3.26,38.53-307,34.79-307,34.79s-306.47-3.77-307.75-42.9c0-1.05.49-7,0-16.08-.55-10.08-1.76-13.23,0-14.55,3.32-2.51,11.62,5.75,23.74,12.25,8.44,4.53,15.22,6.32,33.68,10.2,34.53,7.26,51.8,10.89,68.58,13,87.76,11,182.53,11.11,182.53,11.11s70.68.08,142.1-6.43c16.63-1.52,34.74-3.55,55.59-6.9,1.26-.2,17.81-3.51,50.86-10.11,18.5-3.7,27.9-5.64,35.77-10.1,12.34-7,18.91-15.57,22.39-13.38,2.51,1.57.63,7-.18,23.33C882.07,194.23,882.37,199.17,882.26,200.51Z"/><path class="cls-4" d="M884.06,753.85c1.73,1.5-.68,5.13-.76,13-.07,6.51,1.51,10,1.53,11.49.13,9.34-57.74,35-247.4,36.77-45.49.43-89.79-.59-131-1.53-77.44-1.79-46.72-3.09-83.54-3.09,0,0-39.55-1.49-127.1-16.06-4.69-.78-19.12-3.34-21.51-11.49-.95-3.22.79-4.57.83-10.73.06-10.81-5.27-16.23-3.18-18.29,1.93-1.9,7.7,1.49,15.38,5.21,0,0,3.11,1.5,26.86,10.79,14.36,5.61,26,5.87,39.86,6.67,40.79,2.34,18.16,4.5,89.64,8.58,36.71,2.1,68.58,2.77,132.31,3.95,53.39,1,70.48.83,90.53,0,11-.49,4.18-.37,68.94-5.32,56.87-4.36,80.57-4.85,112.17-16.29C866.72,760.58,868,760,868,760,876.59,755.87,882,752,884.06,753.85Z"/><path class="cls-5" d="M338,257.34a1423,1423,0,0,0,232.84,23.92,1423.73,1423.73,0,0,0,237.43-15.15"/><path class="cls-5" d="M337.93,355.44a1192.85,1192.85,0,0,0,244.35,26.92,1192.8,1192.8,0,0,0,228.23-20.55"/><path class="cls-5" d="M337.94,455.89a1244.53,1244.53,0,0,0,229.78,18.39A1245,1245,0,0,0,809,447.47"/><path class="cls-5" d="M338.67,406.56a984.42,984.42,0,0,0,118.76,17.93,982.37,982.37,0,0,0,127.14,3.06"/><path class="cls-5" d="M338.31,511.54a2194.21,2194.21,0,0,0,229.41,14.82,2194.91,2194.91,0,0,0,242.4-10.48"/><path class="cls-5" d="M340.19,306.26a1078.18,1078.18,0,0,0,175.45,19.42,1080.16,1080.16,0,0,0,168.51-8.42"/><path class="cls-5" d="M817.43,575.38A1378.75,1378.75,0,0,1,673.68,591a1382.38,1382.38,0,0,1-169.53-1"/><path class="cls-5" d="M328.36,627.19a1544.76,1544.76,0,0,0,227.57,16.44,1541.16,1541.16,0,0,0,254.14-21.76"/><path class="cls-5" d="M340.27,664A754.9,754.9,0,0,0,451,682.87a755.55,755.55,0,0,0,142,0"/><path class="cls-5" d="M337.17,708.33a1438.73,1438.73,0,0,0,235.4,21.52,1439,1439,0,0,0,241-18.13"/><ellipse class="cls-6" cx="574.22" cy="151.77" rx="112.93" ry="18.72"/></svg>