<svg id="Layer_1" data-name="Layer 1" xmlns="http://www.w3.org/2000/svg" viewBox="0 0 144 1728"><defs><style>.cls-1{fill:#eadb57;}.cls-2{fill:none;stroke:#000;stroke-miterlimit:10;stroke-width:10px;}.cls-3{font-size:40px;font-family:ComicSansMS, Comic Sans MS;}</style></defs><title>Artboard 1</title><rect class="cls-1" x="-794.34" y="790.26" width="1728" height="147.47" transform="translate(-794.34 933.66) rotate(-90)"/><line class="cls-2" x1="141.77" y1="13.53" x2="97.63" y2="13.85"/><line class="cls-2" x1="141.77" y1="152.66" x2="97.63" y2="152.98"/><line class="cls-2" x1="141.77" y1="299.25" x2="97.63" y2="299.57"/><line class="cls-2" x1="141.77" y1="442.48" x2="97.63" y2="442.8"/><line class="cls-2" x1="141.77" y1="732.3" x2="97.63" y2="732.62"/><line class="cls-2" x1="140.74" y1="589.54" x2="96.6" y2="589.86"/><line class="cls-2" x1="141.77" y1="876.47" x2="97.63" y2="876.79"/><line class="cls-2" x1="141.77" y1="1021.9" x2="97.63" y2="1022.22"/><line class="cls-2" x1="141.77" y1="1306.44" x2="97.63" y2="1306.76"/><line class="cls-2" x1="141.77" y1="1164.44" x2="97.63" y2="1164.76"/><line class="cls-2" x1="141.27" y1="1453.62" x2="97.13" y2="1453.94"/><text class="cls-3" transform="translate(60.58 5.12) rotate(89.59)">1</text><text class="cls-3" transform="translate(59.9 144.04) rotate(89.59)">2</text><text class="cls-3" transform="translate(59.9 287.46) rotate(89.59)">3</text><text class="cls-3" transform="translate(59.9 430.5) rotate(89.59)">4</text><text class="cls-3" transform="translate(59.9 577.56) rotate(89.59)">5</text><text class="cls-3" transform="translate(59.9 720.4) rotate(89.59)">6</text><text class="cls-3" transform="translate(60.55 864.49) rotate(89.59)">7</text><text class="cls-3" transform="translate(62.24 1009.93) rotate(89.59)">8</text><text class="cls-3" transform="translate(59.9 1152.46) rotate(89.59)">9</text><text class="cls-3" transform="translate(62.17 1285.86) rotate(89.59)">10</text><text class="cls-3" transform="translate(59.86 1435.75) rotate(89.59)">11</text><line class="cls-2" x1="141.77" y1="1591.39" x2="97.63" y2="1591.71"/><text class="cls-3" transform="translate(49.46 1571.54) rotate(89.59)">12</text></svg>